<svg xmlns="http://www.w3.org/2000/svg">

<symbol id="Sunny" viewBox="0 0 47 47" fill="none" >
<path d="M0 23.2354C0 22.7021 0.18457 22.251 0.553711 21.8818C0.936523 21.5264 1.37402 21.3486 1.86621 21.3486H6.33691C6.84277 21.3486 7.25977 21.5332 7.58789 21.9023C7.92969 22.2715 8.10059 22.7158 8.10059 23.2354C8.10059 23.7549 7.92969 24.1992 7.58789 24.5684C7.25977 24.9238 6.84277 25.1016 6.33691 25.1016H1.86621C1.36035 25.1016 0.922852 24.917 0.553711 24.5479C0.18457 24.1787 0 23.7412 0 23.2354ZM6.25488 38.3906C6.25488 37.8848 6.42578 37.4404 6.76758 37.0576L9.9873 33.9404C10.3154 33.5986 10.7461 33.4277 11.2793 33.4277C11.7988 33.4277 12.2295 33.5918 12.5713 33.9199C12.9268 34.248 13.1045 34.665 13.1045 35.1709C13.1045 35.7041 12.9268 36.1689 12.5713 36.5654L9.4541 39.6826C8.56543 40.3799 7.66992 40.3799 6.76758 39.6826C6.42578 39.3135 6.25488 38.8828 6.25488 38.3906ZM6.25488 8.10059C6.25488 7.59473 6.42578 7.15039 6.76758 6.76758C7.19141 6.41211 7.65625 6.23438 8.16211 6.23438C8.64062 6.23438 9.07129 6.41211 9.4541 6.76758L12.5713 9.9873C12.9268 10.3154 13.1045 10.7461 13.1045 11.2793C13.1045 11.7988 12.9268 12.2363 12.5713 12.5918C12.2295 12.9336 11.7988 13.1045 11.2793 13.1045C10.7461 13.1045 10.3154 12.9268 9.9873 12.5713L6.76758 9.4541C6.42578 9.08496 6.25488 8.63379 6.25488 8.10059ZM11.833 23.2354C11.833 21.1982 12.3457 19.3047 13.3711 17.5547C14.3965 15.791 15.7842 14.3965 17.5342 13.3711C19.2979 12.3457 21.1982 11.833 23.2354 11.833C24.7666 11.833 26.2363 12.1406 27.6445 12.7559C29.0527 13.3574 30.2627 14.1709 31.2744 15.1963C32.2998 16.208 33.1133 17.418 33.7148 18.8262C34.3164 20.2344 34.6172 21.7041 34.6172 23.2354C34.6172 25.2861 34.1045 27.1865 33.0791 28.9365C32.0674 30.6865 30.6865 32.0742 28.9365 33.0996C27.1865 34.1113 25.2861 34.6172 23.2354 34.6172C21.1846 34.6172 19.2842 34.1113 17.5342 33.0996C15.7842 32.0742 14.3965 30.6865 13.3711 28.9365C12.3457 27.1865 11.833 25.2861 11.833 23.2354ZM15.5449 23.2354C15.5449 25.3682 16.29 27.1934 17.7803 28.7109C19.2842 30.2148 21.1025 30.9668 23.2354 30.9668C25.3682 30.9668 27.1865 30.2148 28.6904 28.7109C30.208 27.1934 30.9668 25.3682 30.9668 23.2354C30.9668 21.1299 30.208 19.332 28.6904 17.8418C27.1865 16.3516 25.3682 15.6064 23.2354 15.6064C21.1162 15.6064 19.3047 16.3516 17.8008 17.8418C16.2969 19.332 15.5449 21.1299 15.5449 23.2354ZM21.3691 40.2363C21.3691 39.7168 21.5469 39.2793 21.9023 38.9238C22.2715 38.5684 22.7158 38.3906 23.2354 38.3906C23.7686 38.3906 24.2129 38.5684 24.5684 38.9238C24.9238 39.2793 25.1016 39.7168 25.1016 40.2363V44.584C25.1016 45.1172 24.917 45.5684 24.5479 45.9375C24.1924 46.3066 23.7549 46.4912 23.2354 46.4912C22.7158 46.4912 22.2715 46.3066 21.9023 45.9375C21.5469 45.5684 21.3691 45.1172 21.3691 44.584V40.2363ZM21.3691 6.33691V1.86621C21.3691 1.36035 21.5537 0.922852 21.9229 0.553711C22.292 0.18457 22.7295 0 23.2354 0C23.7412 0 24.1787 0.18457 24.5479 0.553711C24.917 0.922852 25.1016 1.36035 25.1016 1.86621V6.33691C25.1016 6.84277 24.917 7.2666 24.5479 7.6084C24.1924 7.93652 23.7549 8.10059 23.2354 8.10059C22.7158 8.10059 22.2715 7.93652 21.9023 7.6084C21.5469 7.2666 21.3691 6.84277 21.3691 6.33691ZM33.4482 35.1709C33.4482 34.665 33.6123 34.2549 33.9404 33.9404C34.2686 33.5986 34.6787 33.4277 35.1709 33.4277C35.7041 33.4277 36.1416 33.5986 36.4834 33.9404L39.6826 37.0576C40.0381 37.4404 40.2158 37.8848 40.2158 38.3906C40.2158 38.8965 40.0381 39.3271 39.6826 39.6826C38.8076 40.3662 37.9326 40.3662 37.0576 39.6826L33.9404 36.5654C33.6123 36.1963 33.4482 35.7314 33.4482 35.1709ZM33.4482 11.2793C33.4482 10.7324 33.6123 10.3018 33.9404 9.9873L37.0576 6.76758C37.4404 6.41211 37.8711 6.23438 38.3496 6.23438C38.8691 6.23438 39.3066 6.41895 39.6621 6.78809C40.0312 7.15723 40.2158 7.59473 40.2158 8.10059C40.2158 8.64746 40.0381 9.09863 39.6826 9.4541L36.4834 12.5713C36.0869 12.9268 35.6494 13.1045 35.1709 13.1045C34.6787 13.1045 34.2686 12.9336 33.9404 12.5918C33.6123 12.2363 33.4482 11.7988 33.4482 11.2793ZM38.9033 24.5684C38.5615 24.1992 38.3906 23.7549 38.3906 23.2354C38.3906 22.7158 38.5684 22.2646 38.9238 21.8818C39.2793 21.5264 39.6963 21.3486 40.1748 21.3486H44.6045C45.1104 21.3486 45.5479 21.54 45.917 21.9229C46.2998 22.292 46.4912 22.7295 46.4912 23.2354C46.4912 23.7412 46.2998 24.1787 45.917 24.5479C45.5479 24.917 45.1104 25.1016 44.6045 25.1016H40.1748C39.6689 25.1016 39.2451 24.9238 38.9033 24.5684Z" fill="currentColor" fill-opacity="currentColor"/>
</symbol>

<symbol id="LightRain" viewBox="0 0 48 48" fill="none">
<path d="M0 23.1738V23.1533V23.1328C0 20.6035 0.786133 18.3477 2.3584 16.3652C3.94434 14.3828 5.94727 13.1113 8.36719 12.5508C9.03711 9.55664 10.5684 7.10254 12.9609 5.18848C15.3672 3.26074 18.1221 2.29688 21.2256 2.29688C23.3994 2.29688 25.3818 2.77539 27.1729 3.73242C28.2666 2.57031 29.5518 1.66113 31.0283 1.00488C32.5049 0.334961 34.0293 0 35.6016 0C37.6797 0 39.6006 0.519531 41.3643 1.55859C43.1416 2.58398 44.543 3.98535 45.5684 5.7627C46.6074 7.52637 47.127 9.44727 47.127 11.5254C47.127 14.2188 46.293 16.6182 44.625 18.7236C45.2539 20.0635 45.5684 21.5332 45.5684 23.1328C45.5684 25.0605 45.1035 26.8516 44.1738 28.5059C43.2441 30.1465 41.9727 31.4658 40.3594 32.4639C38.7598 33.4482 36.9961 33.9678 35.0684 34.0225C34.7812 34.0225 34.6377 33.8994 34.6377 33.6533V30.7207C34.6377 30.4609 34.7812 30.3311 35.0684 30.3311C36.9414 30.2354 38.5273 29.4902 39.8262 28.0957C41.1387 26.6875 41.7949 25.0332 41.7949 23.1328C41.7949 21.1914 41.0908 19.5234 39.6826 18.1289C38.2744 16.7344 36.5928 16.0371 34.6377 16.0371H31.1104C30.8506 16.0371 30.7207 15.9072 30.7207 15.6475L30.5566 14.3555C30.3105 11.9902 29.2852 10.0078 27.4805 8.4082C25.6895 6.79492 23.6045 5.98828 21.2256 5.98828C18.8193 5.98828 16.7275 6.79492 14.9502 8.4082C13.1865 10.0078 12.1885 11.9902 11.9561 14.3555L11.792 15.6475C11.7236 15.8525 11.5596 15.9551 11.2998 15.9551L10.1924 16.0371C8.34668 16.2559 6.80859 17.0352 5.57812 18.375C4.34766 19.7012 3.73242 21.2871 3.73242 23.1328V23.2148C3.75977 23.2422 3.78027 23.2559 3.79395 23.2559C3.80762 25.1152 4.46387 26.7354 5.7627 28.1162C6.37793 28.7588 7.04785 29.2441 7.77246 29.5723V29.6133C8.59277 30.0371 9.49512 30.2832 10.4795 30.3516C10.7256 30.3516 10.8486 30.4746 10.8486 30.7207V33.6533C10.8486 33.8994 10.7256 34.0225 10.4795 34.0225C9.41309 33.9678 8.36719 33.7559 7.3418 33.3867C5.6875 32.8398 4.25195 31.9443 3.03516 30.7002C1.83203 29.4424 0.977539 27.9795 0.47168 26.3115C0.157227 25.2861 0 24.2402 0 23.1738ZM12.0381 38.8623C12.0381 38.7939 12.0518 38.6982 12.0791 38.5752C12.1064 38.4521 12.1201 38.3633 12.1201 38.3086L12.3252 37.0371C12.4756 36.5176 12.7764 36.1279 13.2275 35.8682C13.6787 35.6084 14.1709 35.5469 14.7041 35.6836C15.1963 35.834 15.5654 36.1348 15.8115 36.5859C16.0576 37.0371 16.1055 37.4951 15.9551 37.96L15.6475 39.2725C15.4287 40.2295 14.875 40.708 13.9863 40.708C13.918 40.708 13.8086 40.6943 13.6582 40.667C13.5215 40.6533 13.4326 40.6465 13.3916 40.6465C12.9404 40.5098 12.5986 40.2705 12.3662 39.9287C12.1475 39.5869 12.0381 39.2314 12.0381 38.8623ZM13.6582 32.4023C13.6582 31.8828 13.8291 31.4521 14.1709 31.1104C14.5127 30.7686 14.9434 30.5977 15.4629 30.5977C15.9824 30.5977 16.4131 30.7686 16.7549 31.1104C17.0967 31.4521 17.2676 31.8828 17.2676 32.4023C17.2676 32.9082 17.0967 33.332 16.7549 33.6738C16.4131 34.0156 15.9824 34.1865 15.4629 34.1865C14.957 34.1865 14.54 34.0088 14.2119 33.6533C13.8428 33.3115 13.6582 32.8945 13.6582 32.4023ZM17.2471 45.4863C17.2471 45.4043 17.2744 45.2402 17.3291 44.9941L17.6162 43.7021C17.7666 43.21 18.0674 42.8408 18.5186 42.5947C18.9697 42.3486 19.4277 42.3008 19.8926 42.4512C20.3984 42.5469 20.7812 42.8135 21.041 43.251C21.3008 43.6885 21.3623 44.1875 21.2256 44.748L20.9385 46.0195C20.7061 46.9219 20.125 47.373 19.1953 47.373C19.0859 47.373 18.9082 47.3457 18.6621 47.291C18.1836 47.1543 17.8281 46.9082 17.5957 46.5527C17.3633 46.2109 17.2471 45.8555 17.2471 45.4863ZM18.9697 39.1289C18.9697 38.623 19.1406 38.1992 19.4824 37.8574C19.8242 37.5293 20.2549 37.3652 20.7744 37.3652C21.2939 37.3652 21.7246 37.5293 22.0664 37.8574C22.4082 38.1992 22.5791 38.623 22.5791 39.1289C22.5791 39.6484 22.4082 40.0791 22.0664 40.4209C21.7246 40.7627 21.2939 40.9336 20.7744 40.9336C20.2822 40.9336 19.8584 40.7559 19.5029 40.4004C19.1475 40.0449 18.9697 39.6211 18.9697 39.1289ZM20.3232 34.166C20.3232 33.9609 20.3438 33.7695 20.3848 33.5918L20.877 31.623C21.0273 31.1035 21.3281 30.7139 21.7793 30.4541C22.2305 30.1943 22.6953 30.1328 23.1738 30.2695C23.6934 30.4199 24.0762 30.7139 24.3223 31.1514C24.582 31.5889 24.6367 32.0469 24.4863 32.5254L23.9121 34.4941C23.7344 35.0957 23.4336 35.5059 23.0098 35.7246C22.5859 35.9434 22.1211 35.9844 21.6152 35.8477C21.1777 35.7656 20.8428 35.5469 20.6104 35.1914C20.3916 34.8359 20.2959 34.4941 20.3232 34.166ZM26.373 38.8623C26.373 38.7939 26.3799 38.6914 26.3936 38.5547C26.4209 38.418 26.4346 38.3359 26.4346 38.3086L26.6396 37.0371C26.79 36.5176 27.0908 36.1279 27.542 35.8682C27.9932 35.6084 28.4854 35.5469 29.0186 35.6836C29.5107 35.834 29.8799 36.1348 30.126 36.5859C30.3857 37.0371 30.4404 37.4951 30.29 37.96L29.9824 39.2725C29.7637 40.2295 29.21 40.708 28.3213 40.708C28.2529 40.708 28.1436 40.6943 27.9932 40.667C27.8428 40.6533 27.7471 40.6465 27.7061 40.6465C27.2686 40.5098 26.9336 40.2705 26.7012 39.9287C26.4824 39.5869 26.373 39.2314 26.373 38.8623ZM27.9932 32.4023C27.9932 31.8828 28.1641 31.4521 28.5059 31.1104C28.8477 30.7686 29.2783 30.5977 29.7979 30.5977C30.3174 30.5977 30.748 30.7686 31.0898 31.1104C31.4316 31.4521 31.6025 31.8828 31.6025 32.4023C31.6025 32.9082 31.4316 33.332 31.0898 33.6738C30.748 34.0156 30.3174 34.1865 29.7979 34.1865C29.2783 34.1865 28.8545 34.0088 28.5264 33.6533C28.1709 33.3252 27.9932 32.9082 27.9932 32.4023ZM30.249 5.92676C32.0811 7.59473 33.3184 9.72754 33.9609 12.3252H34.6377C37.6592 12.3252 40.2227 13.3779 42.3281 15.4834C43.0117 14.2803 43.3535 12.9609 43.3535 11.5254C43.3535 9.37891 42.5947 7.56055 41.0771 6.07031C39.5732 4.56641 37.748 3.81445 35.6016 3.81445C33.4961 3.81445 31.7119 4.51855 30.249 5.92676Z" fill="currentColor" fill-opacity="currentColor"/>
</symbol>

<symbol id="MostlySunny" viewBox="0 0 59 46" fill="none">
<path d="M0 34.9863C0 36.9551 0.478516 38.7734 1.43555 40.4414C2.40625 42.1094 3.71875 43.4287 5.37305 44.3994C7.02734 45.3564 8.83203 45.835 10.7871 45.835H34.4736C36.4287 45.835 38.2402 45.3564 39.9082 44.3994C41.5762 43.4287 42.8955 42.1094 43.8662 40.4414C44.8369 38.7734 45.3223 36.9551 45.3223 34.9863C45.3223 33.5371 45.0146 32.0811 44.3994 30.6182C46.0674 28.5811 46.9014 26.168 46.9014 23.3789C46.9014 21.8203 46.6006 20.3369 45.999 18.9287C45.3975 17.5068 44.584 16.2832 43.5586 15.2578C42.5332 14.2324 41.3096 13.4189 39.8877 12.8174C38.4795 12.2158 36.9961 11.915 35.4375 11.915C32.1973 11.915 29.3672 13.1865 26.9473 15.7295C25.252 14.7725 23.2832 14.2939 21.041 14.2939C17.9648 14.2939 15.2441 15.251 12.8789 17.165C10.5137 19.0654 8.99609 21.5059 8.32617 24.4863C5.87891 25.0469 3.87598 26.3047 2.31738 28.2598C0.772461 30.2148 0 32.457 0 34.9863ZM3.73242 34.9863C3.73242 33.1543 4.34082 31.5752 5.55762 30.249C6.78809 28.9229 8.32617 28.1504 10.1719 27.9316L11.2588 27.8701C11.5322 27.8701 11.6689 27.7402 11.6689 27.4805L11.8125 26.291C12.1133 23.9258 13.1387 21.9502 14.8887 20.3643C16.6387 18.7646 18.6895 17.9648 21.041 17.9648C23.4473 17.9648 25.5391 18.7646 27.3164 20.3643C29.1074 21.9639 30.1123 23.9395 30.3311 26.291L30.4951 27.5625C30.5498 27.8086 30.7002 27.9316 30.9463 27.9316H34.4736C36.4014 27.9316 38.0625 28.6289 39.457 30.0234C40.8516 31.418 41.5488 33.0723 41.5488 34.9863C41.5488 36.9688 40.8516 38.6641 39.457 40.0723C38.0762 41.4668 36.415 42.1641 34.4736 42.1641H10.7871C8.87305 42.1641 7.21875 41.46 5.82422 40.0518C4.42969 38.6299 3.73242 36.9414 3.73242 34.9863ZM18.3955 8.1416C18.3955 8.6748 18.5732 9.13281 18.9287 9.51562L20.3643 10.9102C20.9111 11.3203 21.376 11.5049 21.7588 11.4639C22.21 11.4639 22.6133 11.2793 22.9688 10.9102C23.3242 10.5273 23.502 10.0693 23.502 9.53613C23.502 9.00293 23.3105 8.57227 22.9277 8.24414L21.6357 6.80859C21.2393 6.45313 20.7949 6.27539 20.3027 6.27539C19.7695 6.27539 19.3184 6.45996 18.9492 6.8291C18.5801 7.18457 18.3955 7.62207 18.3955 8.1416ZM30.085 17.8213C31.6025 16.3584 33.3867 15.627 35.4375 15.627C37.5977 15.627 39.4297 16.3789 40.9336 17.8828C42.4512 19.3867 43.21 21.2188 43.21 23.3789C43.21 24.7461 42.8408 26.0859 42.1025 27.3984C39.9834 25.3066 37.4404 24.2607 34.4736 24.2607H33.7764C33.2295 21.8818 31.999 19.7354 30.085 17.8213ZM33.6328 6.27539C33.6328 6.83594 33.8037 7.28711 34.1455 7.62891C34.4873 7.9707 34.918 8.1416 35.4375 8.1416C35.998 8.1416 36.4492 7.9707 36.791 7.62891C37.1328 7.28711 37.3037 6.83594 37.3037 6.27539V1.80469C37.3037 1.28516 37.126 0.854492 36.7705 0.512695C36.4287 0.170898 35.9844 0 35.4375 0C34.918 0 34.4873 0.170898 34.1455 0.512695C33.8037 0.854492 33.6328 1.28516 33.6328 1.80469V6.27539ZM45.7119 11.2998C45.7119 11.8604 45.876 12.3115 46.2041 12.6533C46.6689 13.0088 47.1201 13.1865 47.5576 13.1865C47.9541 13.1865 48.3848 13.0088 48.8496 12.6533L51.9873 9.51562C52.3428 9.11914 52.5205 8.6543 52.5205 8.12109C52.5205 7.60156 52.3428 7.16406 51.9873 6.80859C51.6318 6.45313 51.2012 6.27539 50.6953 6.27539C50.1758 6.27539 49.752 6.45313 49.4238 6.80859L46.2041 9.94629C45.876 10.3428 45.7119 10.7939 45.7119 11.2998ZM47.9883 35.8682C47.6328 36.2236 47.4551 36.6611 47.4551 37.1807C47.4551 37.7002 47.6396 38.1582 48.0088 38.5547L49.4238 39.9287C49.752 40.2842 50.1758 40.4619 50.6953 40.4619C51.2148 40.4619 51.6455 40.2842 51.9873 39.9287C52.3428 39.5596 52.5205 39.1016 52.5205 38.5547C52.5205 38.0625 52.3428 37.6387 51.9873 37.2832L50.5723 35.8682C50.2168 35.5127 49.7998 35.335 49.3213 35.335C48.8018 35.335 48.3574 35.5127 47.9883 35.8682ZM51.208 22.0664C50.8389 22.4355 50.6543 22.873 50.6543 23.3789C50.6543 23.8848 50.8457 24.3086 51.2285 24.6504C51.584 25.0059 52.0283 25.1836 52.5615 25.1836H57.0322C57.5381 25.1836 57.9551 25.0127 58.2832 24.6709C58.625 24.3291 58.7959 23.8984 58.7959 23.3789C58.7959 22.8594 58.625 22.4219 58.2832 22.0664C57.9551 21.6973 57.5381 21.5127 57.0322 21.5127H52.5615C52.042 21.5127 51.5908 21.6973 51.208 22.0664Z" fill="currentColor" fill-opacity="currentColor"/>
</symbol>

<symbol id="PartlyCloudy" viewBox="0 0 49 42" fill="none">
<path d="M0 16.7344C0 14.7109 0.628906 12.8994 1.88672 11.2998C3.1582 9.7002 4.75781 8.68164 6.68555 8.24414C7.24609 5.83789 8.4834 3.8623 10.3975 2.31738C12.3252 0.772461 14.5264 0 17.001 0C19.4072 0 21.5537 0.758789 23.4404 2.27637C25.3408 3.78027 26.5713 5.70801 27.1318 8.05957H27.7061C30.1123 8.05957 32.1631 8.90723 33.8584 10.6025C35.5674 12.2842 36.4219 14.3281 36.4219 16.7344C36.4219 16.748 36.415 16.7754 36.4014 16.8164C36.4014 16.8574 36.4014 16.8984 36.4014 16.9395C38.042 18.6895 38.8623 20.7676 38.8623 23.1738C38.8623 24.8281 38.4453 26.3662 37.6113 27.7881C36.791 29.1963 35.6768 30.3105 34.2686 31.1309C32.874 31.9512 31.3564 32.3613 29.7158 32.3613C27.6104 32.3613 25.7373 31.7119 24.0967 30.4131C22.4697 29.1143 21.3965 27.4668 20.877 25.4707H8.3877C6.0498 25.375 4.06738 24.4863 2.44043 22.8047C0.813477 21.1094 0 19.0859 0 16.7344ZM2.97363 16.7344C2.97363 18.2656 3.5 19.5986 4.55273 20.7334C5.61914 21.8545 6.89746 22.4492 8.3877 22.5176H20.7949C20.877 22.4629 20.959 22.4355 21.041 22.4355H23.1738C23.2422 22.4355 23.3037 22.4629 23.3584 22.5176H28.0547C29.5449 22.4492 30.8232 21.8545 31.8896 20.7334C32.9561 19.5986 33.4893 18.2656 33.4893 16.7344C33.4893 15.1895 32.915 13.8564 31.7666 12.7354C30.6182 11.6006 29.2646 11.0332 27.7061 11.0332H24.876C24.6709 11.0332 24.5684 10.9307 24.5684 10.7256L24.4248 9.7002C24.2334 7.7998 23.4199 6.20703 21.9844 4.92188C20.5488 3.62305 18.8877 2.97363 17.001 2.97363C15.0596 2.97363 13.3779 3.61621 11.9561 4.90137C10.5342 6.18652 9.72754 7.78613 9.53613 9.7002L9.41309 10.7256C9.41309 10.9307 9.29688 11.0332 9.06445 11.0332H8.18262C6.70605 11.1973 5.46875 11.8193 4.4707 12.8994C3.47266 13.9795 2.97363 15.2578 2.97363 16.7344ZM16.5293 36.4424C15.9824 35.7314 15.9824 35.0205 16.5293 34.3096L19.0107 31.7871C19.3115 31.5273 19.6875 31.3975 20.1387 31.3975C20.5488 31.3975 20.8838 31.5273 21.1436 31.7871C21.4033 32.0469 21.5332 32.3887 21.5332 32.8125C21.5332 33.25 21.4033 33.5986 21.1436 33.8584L18.6416 36.4424C18.3682 36.7158 18.0127 36.8525 17.5752 36.8525C17.1514 36.8525 16.8027 36.7158 16.5293 36.4424ZM23.9531 25.4707C24.418 26.6465 25.1699 27.5967 26.209 28.3213C27.2617 29.0459 28.4307 29.4082 29.7158 29.4082C31.4111 29.4082 32.8467 28.7998 34.0225 27.583C35.2119 26.3662 35.8066 24.8965 35.8066 23.1738C35.8066 22.3262 35.6699 21.5605 35.3965 20.877C34.6719 22.2168 33.6533 23.3037 32.3408 24.1377C31.042 24.9717 29.6133 25.416 28.0547 25.4707H23.9531ZM28.2188 36.8115C28.2188 36.4014 28.3623 36.0596 28.6494 35.7861C28.9502 35.5127 29.3057 35.376 29.7158 35.376C30.1123 35.376 30.4746 35.5264 30.8027 35.8271C31.0762 36.1006 31.2129 36.4287 31.2129 36.8115V40.4004C31.2129 40.8105 31.0625 41.166 30.7617 41.4668C30.4746 41.7676 30.126 41.918 29.7158 41.918C29.3057 41.918 28.9502 41.7676 28.6494 41.4668C28.3623 41.166 28.2188 40.8105 28.2188 40.4004V36.8115ZM37.8574 32.8125C37.8574 32.416 37.9941 32.0811 38.2676 31.8076C38.5547 31.5342 38.9033 31.3975 39.3135 31.3975C39.7373 31.3975 40.0791 31.5273 40.3389 31.7871L42.9229 34.3096C43.21 34.624 43.3535 34.9727 43.3535 35.3555C43.3535 35.7656 43.2031 36.1143 42.9023 36.4014C42.6152 36.7021 42.2598 36.8525 41.8359 36.8525C41.3848 36.8525 41.0225 36.7158 40.749 36.4424L38.2676 33.8584C37.9941 33.5439 37.8574 33.1953 37.8574 32.8125ZM38.2676 14.6016C37.9941 14.3145 37.8574 13.959 37.8574 13.5352C37.8574 13.1113 37.9941 12.7695 38.2676 12.5098L40.749 9.92578C41.0498 9.65234 41.4121 9.51562 41.8359 9.51562C42.2461 9.51562 42.6084 9.65234 42.9229 9.92578C43.21 10.2539 43.3535 10.623 43.3535 11.0332C43.3535 11.416 43.21 11.7646 42.9229 12.0791L40.3389 14.6016C40.0654 14.875 39.7236 15.0117 39.3135 15.0117C38.9033 15.0117 38.5547 14.875 38.2676 14.6016ZM41.8359 23.1738C41.8359 22.7637 41.9727 22.415 42.2461 22.1279C42.5195 21.8408 42.8613 21.6973 43.2715 21.6973H46.8193C47.2432 21.6973 47.6055 21.8408 47.9062 22.1279C48.207 22.415 48.3574 22.7637 48.3574 23.1738C48.3574 23.5977 48.207 23.96 47.9062 24.2607C47.6055 24.5479 47.2432 24.6914 46.8193 24.6914H43.2715C42.8613 24.6914 42.5195 24.5479 42.2461 24.2607C41.9727 23.96 41.8359 23.5977 41.8359 23.1738Z" fill="currentColor" fill-opacity="currentColor"/>
</symbol>

<symbol id="Hot" viewBox="0 0 48 45" fill="none">
<path d="M0 23.584C0 23.0645 0.198242 22.6201 0.594727 22.251C0.963867 21.8818 1.41504 21.6973 1.94824 21.6973H6.45996C6.97949 21.6973 7.41699 21.8818 7.77246 22.251C8.1416 22.6201 8.32617 23.0645 8.32617 23.584C8.32617 24.1309 8.1416 24.5889 7.77246 24.958C7.41699 25.3271 6.97949 25.5117 6.45996 25.5117H1.94824C1.40137 25.5117 0.936523 25.3271 0.553711 24.958C0.18457 24.5889 0 24.1309 0 23.584ZM6.39844 8.24414C6.39844 7.73828 6.57617 7.28711 6.93164 6.89062C7.3418 6.52148 7.82031 6.33691 8.36719 6.33691C8.83203 6.33691 9.2627 6.52148 9.65918 6.89062L12.8379 10.1309C13.207 10.4727 13.3916 10.9102 13.3916 11.4434C13.3916 11.9629 13.207 12.4072 12.8379 12.7764C12.4824 13.1318 12.0518 13.3096 11.5459 13.3096C10.9854 13.3096 10.541 13.125 10.2129 12.7559L6.93164 9.59766C6.57617 9.21484 6.39844 8.76367 6.39844 8.24414ZM12.0996 23.584C12.0996 22.0391 12.4072 20.5557 13.0225 19.1338C13.6514 17.6982 14.4854 16.4678 15.5244 15.4424C16.5771 14.4033 17.8213 13.5762 19.2568 12.9609C20.6924 12.332 22.1895 12.0176 23.748 12.0176C25.8398 12.0176 27.7812 12.5439 29.5723 13.5967C31.3633 14.6357 32.7783 16.0439 33.8174 17.8213C34.8564 19.5986 35.376 21.5195 35.376 23.584C35.376 23.9121 35.3555 24.2197 35.3145 24.5068C34.6992 24.1377 33.9951 23.9531 33.2021 23.9531C32.6689 23.9531 32.1426 24.0625 31.623 24.2812C31.6367 24.1309 31.6436 23.8984 31.6436 23.584C31.6436 21.4512 30.8711 19.6328 29.3262 18.1289C27.7812 16.6113 25.9219 15.8525 23.748 15.8525C21.5879 15.8525 19.7354 16.6113 18.1904 18.1289C16.6592 19.6328 15.8936 21.4512 15.8936 23.584V23.9736C15.251 24.0146 14.6357 24.1992 14.0479 24.5273C14.0342 24.541 13.959 24.5957 13.8223 24.6914C13.6855 24.7871 13.5488 24.8896 13.4121 24.999C13.2754 25.0947 13.1045 25.2314 12.8994 25.4092C12.6943 25.5732 12.5029 25.7441 12.3252 25.9219C12.1748 25.2246 12.0996 24.4453 12.0996 23.584ZM12.1611 31.582V31.2539C12.1475 31.0488 12.1611 30.8096 12.2021 30.5361C12.3115 29.7568 12.6191 29.0117 13.125 28.3008C13.4121 27.9453 13.6104 27.7197 13.7197 27.624C13.7334 27.583 13.7607 27.542 13.8018 27.501C13.8428 27.46 13.8701 27.4326 13.8838 27.4189C13.9385 27.3916 14.0273 27.3164 14.1504 27.1934C14.1914 27.1387 14.2461 27.084 14.3145 27.0293C14.3965 26.9746 14.4512 26.9336 14.4785 26.9062C14.5879 26.7969 14.6904 26.7217 14.7861 26.6807L15.1553 26.4346C15.4697 26.2295 15.832 26.127 16.2422 26.127H16.3037C16.5225 26.127 16.7139 26.1475 16.8779 26.1885C16.9463 26.2158 17.042 26.2637 17.165 26.332V26.3525C17.4795 26.4893 17.7256 26.7012 17.9033 26.9883C18.0947 27.2617 18.1904 27.5625 18.1904 27.8906C18.1904 28.2598 18.0879 28.5674 17.8828 28.8135C17.7461 29.0049 17.582 29.1758 17.3906 29.3262C17.3496 29.3398 17.3018 29.3604 17.2471 29.3877C17.2061 29.415 17.1787 29.4287 17.165 29.4287L17.042 29.5107C16.96 29.5791 16.8848 29.6406 16.8164 29.6953C16.7617 29.75 16.6865 29.832 16.5908 29.9414C16.4951 30.0371 16.4131 30.1328 16.3447 30.2285C16.2764 30.3242 16.208 30.4404 16.1396 30.5771C16.085 30.7002 16.0508 30.8232 16.0371 30.9463V31.2334V31.2744C16.1191 31.6025 16.2012 31.8623 16.2832 32.0537C16.4336 32.3545 16.6797 32.6758 17.0215 33.0176C17.0488 33.0586 17.2266 33.2432 17.5547 33.5713C19.4414 35.2803 20.3232 37.1055 20.2002 39.0469C20.1592 39.7031 20.002 40.332 19.7285 40.9336C19.4688 41.5488 19.1611 42.0615 18.8057 42.4717C18.4502 42.8955 18.1631 43.21 17.9443 43.415C17.7256 43.6201 17.541 43.7705 17.3906 43.8662C17.377 43.8799 17.3359 43.9072 17.2676 43.9482C17.1992 44.0029 17.1445 44.0371 17.1035 44.0508C16.9258 44.1328 16.7686 44.1807 16.6318 44.1943C16.4404 44.2217 16.2969 44.2354 16.2012 44.2354C15.5449 44.2354 15.0254 44.0166 14.6426 43.5791C14.3281 43.1963 14.1982 42.7656 14.2529 42.2871C14.3076 41.8086 14.5469 41.4189 14.9707 41.1182L15.0117 41.0771C15.0391 41.0498 15.0732 41.0156 15.1143 40.9746C15.1553 40.9473 15.2031 40.9062 15.2578 40.8516C15.3262 40.7969 15.3877 40.7354 15.4424 40.667C15.5107 40.5986 15.5723 40.5234 15.627 40.4414C15.6953 40.3594 15.7568 40.2705 15.8115 40.1748C15.8799 40.0928 15.9414 39.9971 15.9961 39.8877C16.0645 39.7783 16.1191 39.6689 16.1602 39.5596C16.2012 39.4502 16.2354 39.3271 16.2627 39.1904C16.29 39.0674 16.3037 38.9443 16.3037 38.8213C16.3447 38.3838 16.2354 37.9463 15.9756 37.5088C15.8662 37.2764 15.7021 37.0371 15.4834 36.791C15.333 36.6133 15.2236 36.4971 15.1553 36.4424C14.9502 36.1963 14.8408 36.0664 14.8271 36.0527C14.7861 36.0254 14.7314 35.9844 14.6631 35.9297C14.6084 35.875 14.5674 35.8408 14.54 35.8271C14.2119 35.5264 13.9658 35.2666 13.8018 35.0479C13.5283 34.7061 13.3506 34.4736 13.2686 34.3506C12.8447 33.7764 12.5576 33.209 12.4072 32.6484C12.3115 32.334 12.2568 32.1016 12.2432 31.9512C12.2432 31.9102 12.2295 31.8555 12.2021 31.7871C12.1748 31.7051 12.1611 31.6367 12.1611 31.582ZM20.6514 30.8438C20.6514 30.7207 20.6582 30.6182 20.6719 30.5361C20.7266 30.0576 20.8701 29.5928 21.1025 29.1416C21.335 28.6768 21.5879 28.2871 21.8613 27.9727C22.1484 27.6582 22.4219 27.3848 22.6816 27.1523C22.9551 26.9062 23.1875 26.7217 23.3789 26.5986L23.6455 26.4346C23.9736 26.2295 24.3359 26.127 24.7324 26.127C24.9785 26.127 25.1973 26.1475 25.3887 26.1885C25.4023 26.1885 25.4365 26.209 25.4912 26.25C25.5596 26.2773 25.6074 26.3047 25.6348 26.332C25.6621 26.332 25.6826 26.3389 25.6963 26.3525C25.71 26.3525 25.7646 26.3867 25.8604 26.4551C26.2979 26.7148 26.5713 27.1113 26.6807 27.6445C26.6807 27.6855 26.6807 27.7334 26.6807 27.7881C26.6943 27.8428 26.7012 27.877 26.7012 27.8906C26.7012 27.959 26.6875 28.0479 26.6602 28.1572C26.6328 28.2529 26.6191 28.3145 26.6191 28.3418C26.4688 28.834 26.1611 29.1963 25.6963 29.4287C24.9717 29.9072 24.5889 30.4131 24.5479 30.9463C24.5342 31.124 24.5342 31.2812 24.5479 31.418C24.6025 31.6777 24.7256 31.9648 24.917 32.2793C25.1631 32.6348 25.3408 32.8672 25.4502 32.9766C25.792 33.3184 25.9971 33.5166 26.0654 33.5713C26.3389 33.8174 26.6807 34.1865 27.0908 34.6787C28.2803 36.1006 28.8203 37.5566 28.7109 39.0469C28.6699 39.7031 28.5127 40.3389 28.2393 40.9541C27.9795 41.5693 27.6719 42.0752 27.3164 42.4717C26.9609 42.8818 26.667 43.1963 26.4346 43.415C26.2021 43.6338 26.0176 43.7842 25.8809 43.8662L25.6143 44.0508C25.3818 44.1328 25.2314 44.1807 25.1631 44.1943C24.917 44.2217 24.7734 44.2354 24.7324 44.2354H24.6709C24.4932 44.2354 24.3564 44.2217 24.2607 44.1943C24.2197 44.1943 24.1582 44.1807 24.0762 44.1533C24.0078 44.1396 23.96 44.1328 23.9326 44.1328C23.9189 44.1328 23.8984 44.126 23.8711 44.1123C23.8438 44.0986 23.8164 44.0781 23.7891 44.0508C23.7617 44.0371 23.7412 44.0303 23.7275 44.0303C23.3994 43.7979 23.208 43.6475 23.1533 43.5791C22.8115 43.1826 22.6748 42.7451 22.7432 42.2666C22.8115 41.8018 23.0576 41.4189 23.4814 41.1182L23.543 41.0361C23.5977 40.9951 23.6592 40.9336 23.7275 40.8516C23.8096 40.7832 23.8984 40.7012 23.9941 40.6055C24.0898 40.5098 24.1787 40.3936 24.2607 40.2568C24.3564 40.1201 24.4453 39.9766 24.5273 39.8262C24.6094 39.6895 24.6709 39.5322 24.7119 39.3545C24.7666 39.1768 24.8008 38.999 24.8145 38.8213C24.8418 37.9463 24.3359 37.0234 23.2969 36.0527C22.8867 35.6836 22.5654 35.3691 22.333 35.1094C21.1162 33.6738 20.5557 32.252 20.6514 30.8438ZM21.8408 6.43945V1.90723C21.8408 1.37402 22.0254 0.922852 22.3945 0.553711C22.7773 0.18457 23.2285 0 23.748 0C24.2812 0 24.7324 0.18457 25.1016 0.553711C25.4707 0.922852 25.6553 1.37402 25.6553 1.90723V6.43945C25.6553 6.95898 25.4707 7.38965 25.1016 7.73145C24.7324 8.07324 24.2812 8.24414 23.748 8.24414C23.2285 8.24414 22.7773 8.07324 22.3945 7.73145C22.0254 7.38965 21.8408 6.95898 21.8408 6.43945ZM29.1826 30.5361C29.2373 30.0576 29.3809 29.5928 29.6133 29.1416C29.8457 28.6768 30.0986 28.2871 30.3721 27.9727C30.6592 27.6582 30.9326 27.3848 31.1924 27.1523C31.4658 26.9062 31.6914 26.7217 31.8691 26.5986L32.1562 26.4346C32.2109 26.3936 32.2861 26.3389 32.3818 26.2705C32.6279 26.1748 32.9014 26.127 33.2021 26.127C33.9404 26.127 34.501 26.4072 34.8838 26.9678C34.9932 27.1182 35.0684 27.2822 35.1094 27.46C35.1367 27.5146 35.1504 27.5762 35.1504 27.6445V27.8906C35.1504 28.5742 34.8223 29.0869 34.166 29.4287C33.4688 29.8936 33.0859 30.3994 33.0176 30.9463C32.9355 31.6846 33.4346 32.5596 34.5146 33.5713C36.4287 35.2666 37.3242 37.0918 37.2012 39.0469C37.1602 39.7031 37.0029 40.332 36.7295 40.9336C36.4697 41.5488 36.1553 42.0615 35.7861 42.4717C35.4307 42.8955 35.1436 43.21 34.9248 43.415C34.7197 43.6201 34.542 43.7705 34.3916 43.8662C34.0361 44.085 33.7354 44.2012 33.4893 44.2148C33.4209 44.2285 33.3115 44.2354 33.1611 44.2354C32.5049 44.2354 31.999 44.0166 31.6436 43.5791C31.3154 43.1963 31.1787 42.7656 31.2334 42.2871C31.2881 41.8086 31.5205 41.4189 31.9307 41.1182C31.999 41.0908 32.1289 40.9883 32.3203 40.8105C32.5117 40.6328 32.7168 40.3525 32.9355 39.9697C33.168 39.5869 33.2979 39.2041 33.3252 38.8213C33.3662 37.9463 32.8535 37.0234 31.7871 36.0527C30.8848 35.2598 30.2012 34.4121 29.7363 33.5098C29.2441 32.5527 29.0596 31.5615 29.1826 30.5361ZM34.1865 11.4434C34.1865 10.8965 34.3506 10.459 34.6787 10.1309L37.8779 6.89062C38.2744 6.52148 38.7188 6.33691 39.2109 6.33691C39.7305 6.33691 40.1748 6.52832 40.5439 6.91113C40.9268 7.28027 41.1182 7.72461 41.1182 8.24414C41.1182 8.79102 40.9268 9.24219 40.5439 9.59766L37.3037 12.7559C36.9072 13.125 36.4629 13.3096 35.9707 13.3096C35.4648 13.3096 35.041 13.1318 34.6992 12.7764C34.3574 12.4072 34.1865 11.9629 34.1865 11.4434ZM39.2314 23.584C39.2314 23.1055 39.4229 22.6611 39.8057 22.251C40.1475 21.8818 40.5713 21.6973 41.0771 21.6973H45.5889C46.1084 21.6973 46.5596 21.8887 46.9424 22.2715C47.3389 22.6406 47.5371 23.0781 47.5371 23.584C47.5371 24.1172 47.3457 24.5752 46.9629 24.958C46.5801 25.3271 46.1221 25.5117 45.5889 25.5117H41.0771C40.5439 25.5117 40.0996 25.3271 39.7441 24.958C39.4023 24.5889 39.2314 24.1309 39.2314 23.584Z" fill="currentColor" fill-opacity="currentColor"/>
</symbol>

<symbol id="SunnyRainy" viewBox="0 0 60 60" fill="none">
<path d="M0 35.1299C0 37.5771 0.724609 39.7646 2.17383 41.6924C3.63672 43.6201 5.52344 44.9053 7.83398 45.5479L6.39844 49.2598C6.28906 49.5742 6.3916 49.7314 6.70605 49.7314H11.3613L8.24414 58.9395H8.87988L18.416 46.5527C18.498 46.457 18.5117 46.3545 18.457 46.2451C18.4023 46.1494 18.2998 46.1016 18.1494 46.1016H13.3506L18.8057 35.9297C18.9697 35.6152 18.8672 35.458 18.498 35.458H12.0176C11.8125 35.458 11.6416 35.5674 11.5049 35.7861L9.16699 42.082C7.59473 41.6855 6.2959 40.8447 5.27051 39.5596C4.24512 38.2607 3.73242 36.7842 3.73242 35.1299C3.73242 33.2842 4.34766 31.6914 5.57812 30.3516C6.80859 29.0117 8.34668 28.2324 10.1924 28.0137L11.2998 27.9521C11.5596 27.9521 11.7236 27.8496 11.792 27.6445L11.9561 26.3525C12.1885 23.9873 13.1865 22.0049 14.9502 20.4053C16.7275 18.792 18.8193 17.9854 21.2256 17.9854C23.6045 17.9854 25.6895 18.792 27.4805 20.4053C29.2852 22.0049 30.3105 23.9873 30.5566 26.3525L30.7207 27.6445C30.7207 27.8906 30.8506 28.0137 31.1104 28.0137H34.6377C36.5928 28.0137 38.2744 28.7178 39.6826 30.126C41.0908 31.5205 41.7949 33.1885 41.7949 35.1299C41.7949 37.0303 41.1387 38.6846 39.8262 40.0928C38.5273 41.4873 36.9414 42.2324 35.0684 42.3281C34.7812 42.3281 34.6377 42.458 34.6377 42.7178V45.6504C34.6377 45.8965 34.7812 46.0195 35.0684 46.0195C36.9961 45.9648 38.7598 45.4453 40.3594 44.4609C41.9727 43.4629 43.2441 42.1436 44.1738 40.5029C45.1035 38.8486 45.5684 37.0576 45.5684 35.1299C45.5684 33.5303 45.2539 32.0605 44.625 30.7207C46.293 28.6152 47.127 26.2158 47.127 23.5225C47.127 21.4443 46.6074 19.5234 45.5684 17.7598C44.543 15.9824 43.1416 14.5811 41.3643 13.5557C39.6006 12.5166 37.6797 11.9971 35.6016 11.9971C34.0293 11.9971 32.498 12.3252 31.0078 12.9814C29.5312 13.6377 28.2529 14.5469 27.1729 15.709C25.4092 14.7656 23.4268 14.2939 21.2256 14.2939C18.1221 14.2939 15.3672 15.2578 12.9609 17.1855C10.5684 19.0996 9.03711 21.5537 8.36719 24.5479C5.94727 25.1084 3.94434 26.3799 2.3584 28.3623C0.786133 30.3447 0 32.6006 0 35.1299ZM17.2471 57.4834C17.2471 57.8525 17.3633 58.208 17.5957 58.5498C17.8281 58.9053 18.1836 59.1514 18.6621 59.2881C18.8535 59.3291 19.0312 59.3496 19.1953 59.3496C20.1387 59.3496 20.7197 58.9053 20.9385 58.0166L21.2256 56.7246C21.3623 56.1641 21.3008 55.665 21.041 55.2275C20.7812 54.79 20.3984 54.5234 19.8926 54.4277C19.4277 54.2773 18.9697 54.3252 18.5186 54.5713C18.0674 54.8311 17.7666 55.207 17.6162 55.6992L17.3291 56.9912C17.2744 57.2373 17.2471 57.4014 17.2471 57.4834ZM18.416 8.24414C18.416 8.75 18.6006 9.1875 18.9697 9.55664L20.3848 10.9922C20.7266 11.334 21.1299 11.5254 21.5947 11.5664C22.0459 11.6348 22.4902 11.4707 22.9277 11.0742C23.3652 10.6777 23.584 10.2129 23.584 9.67969C23.584 9.17383 23.3994 8.73633 23.0303 8.36719L21.6562 6.93164C21.3008 6.57617 20.8633 6.39844 20.3438 6.39844C19.7969 6.39844 19.3389 6.57617 18.9697 6.93164C18.6006 7.28711 18.416 7.72461 18.416 8.24414ZM18.9697 51.126C18.9697 51.6182 19.1475 52.042 19.5029 52.3975C19.8584 52.7529 20.2822 52.9307 20.7744 52.9307C21.2939 52.9307 21.7246 52.7598 22.0664 52.418C22.4082 52.0762 22.5791 51.6455 22.5791 51.126C22.5791 50.6201 22.4082 50.1963 22.0664 49.8545C21.7246 49.5127 21.2939 49.3418 20.7744 49.3418C20.2549 49.3418 19.8242 49.5127 19.4824 49.8545C19.1406 50.1963 18.9697 50.6201 18.9697 51.126ZM20.3232 46.1631C20.2959 46.4912 20.3916 46.833 20.6104 47.1885C20.8428 47.5439 21.1777 47.7627 21.6152 47.8447C22.1211 47.9814 22.5859 47.9404 23.0098 47.7217C23.4336 47.5029 23.7344 47.0928 23.9121 46.4912L24.4863 44.5225C24.6367 44.0439 24.582 43.5859 24.3223 43.1484C24.0762 42.7109 23.6934 42.417 23.1738 42.2666C22.6953 42.1162 22.2305 42.1777 21.7793 42.4512C21.3281 42.7109 21.0273 43.0938 20.877 43.5996L20.3848 45.5684C20.3438 45.7461 20.3232 45.9443 20.3232 46.1631ZM26.373 50.8594C26.373 51.2285 26.4824 51.5771 26.7012 51.9053C26.9199 52.2471 27.2549 52.4863 27.7061 52.623C27.7744 52.623 27.877 52.6367 28.0137 52.6641C28.1504 52.6914 28.2529 52.7051 28.3213 52.7051C29.21 52.7051 29.7637 52.2266 29.9824 51.2695L30.29 49.957C30.4404 49.4922 30.3857 49.0342 30.126 48.583C29.8799 48.1318 29.5107 47.8311 29.0186 47.6807C28.4717 47.5439 27.9727 47.5986 27.5215 47.8447C27.084 48.1045 26.79 48.4941 26.6396 49.0137L26.4346 50.3057C26.4346 50.333 26.4209 50.415 26.3936 50.5518C26.3799 50.6885 26.373 50.791 26.373 50.8594ZM27.9932 44.3994C27.9932 44.9053 28.1709 45.3223 28.5264 45.6504C28.8545 46.0059 29.2783 46.1836 29.7979 46.1836C30.3174 46.1836 30.748 46.0127 31.0898 45.6709C31.4316 45.3291 31.6025 44.9053 31.6025 44.3994C31.6025 43.8799 31.4316 43.4492 31.0898 43.1074C30.748 42.7656 30.3174 42.5947 29.7979 42.5947C29.2783 42.5947 28.8477 42.7656 28.5059 43.1074C28.1641 43.4492 27.9932 43.8799 27.9932 44.3994ZM30.249 17.9238C31.7119 16.5156 33.4961 15.8115 35.6016 15.8115C37.748 15.8115 39.5732 16.5635 41.0771 18.0674C42.5947 19.5576 43.3535 21.376 43.3535 23.5225C43.3535 24.958 43.0117 26.2773 42.3281 27.4805C40.2227 25.375 37.6592 24.3223 34.6377 24.3223H33.9609C33.3184 21.7246 32.0811 19.5918 30.249 17.9238ZM33.7354 6.39844C33.7354 6.91797 33.9131 7.3623 34.2686 7.73145C34.6377 8.10059 35.082 8.28516 35.6016 8.28516C36.1211 8.28516 36.5518 8.10742 36.8936 7.75195C37.249 7.38281 37.4268 6.93164 37.4268 6.39844V1.88672C37.4268 1.35352 37.249 0.90918 36.8936 0.553711C36.5518 0.18457 36.1211 0 35.6016 0C35.082 0 34.6377 0.18457 34.2686 0.553711C33.9131 0.922852 33.7354 1.36719 33.7354 1.88672V6.39844ZM46.4502 10.0898C46.1084 10.4316 45.9375 10.8691 45.9375 11.4023C45.9375 11.9355 46.1084 12.373 46.4502 12.7148C46.751 13.0566 47.1475 13.248 47.6396 13.2891C48.1455 13.3164 48.6104 13.125 49.0342 12.7148L52.1924 9.55664C52.5752 9.20117 52.7666 8.76367 52.7666 8.24414C52.7666 7.72461 52.5752 7.28711 52.1924 6.93164C51.8369 6.54883 51.3994 6.35742 50.8799 6.35742C50.374 6.35742 49.9502 6.54883 49.6084 6.93164L46.4502 10.0898ZM47.6396 37.4678C47.6396 37.9736 47.8242 38.4111 48.1934 38.7803L49.6084 40.1543C50.0049 40.5234 50.4561 40.708 50.9619 40.708L51.0029 40.749C51.4814 40.749 51.8779 40.5508 52.1924 40.1543C52.5752 39.7988 52.7666 39.3613 52.7666 38.8418C52.7666 38.3359 52.5752 37.8916 52.1924 37.5088L50.8389 36.1553C50.4424 35.7588 49.998 35.5605 49.5059 35.5605C48.9863 35.5605 48.542 35.752 48.1729 36.1348C47.8174 36.5039 47.6396 36.9482 47.6396 37.4678ZM50.8389 23.5225C50.8389 24.0557 51.0303 24.4863 51.4131 24.8145C51.7549 25.1973 52.1924 25.3887 52.7256 25.3887H57.2373C57.7568 25.3887 58.2012 25.2109 58.5703 24.8555C58.9395 24.4863 59.124 24.042 59.124 23.5225C59.124 23.0029 58.9395 22.5723 58.5703 22.2305C58.2148 21.875 57.7705 21.6973 57.2373 21.6973H52.7256C52.1924 21.6973 51.7412 21.875 51.3721 22.2305C51.0166 22.5723 50.8389 23.0029 50.8389 23.5225Z" fill="currentColor" fill-opacity="currentColor"/>
</symbol>

<symbol id="Rainy" viewBox="0 0 46 46" fill="none">
<path d="M0 20.7539C0 23.2012 0.710938 25.3818 2.13281 27.2959C3.56836 29.1963 5.43457 30.4951 7.73145 31.1924C7.92285 31.2334 8.10059 31.1787 8.26465 31.0283L10.8076 27.8906C8.86621 27.8906 7.20508 27.1934 5.82422 25.7988C4.44336 24.4043 3.75293 22.7227 3.75293 20.7539C3.75293 18.9082 4.36816 17.3086 5.59863 15.9551C6.8291 14.5879 8.36035 13.8291 10.1924 13.6787L11.3408 13.5352C11.5732 13.5352 11.6895 13.4395 11.6895 13.248L11.8535 12.0381C12.127 9.63184 13.1387 7.64258 14.8887 6.07031C16.6523 4.48438 18.7305 3.69141 21.123 3.69141C23.5293 3.69141 25.6211 4.49121 27.3984 6.09082C29.1895 7.67676 30.1943 9.65918 30.4131 12.0381L30.5771 13.3096C30.6318 13.5557 30.7891 13.6787 31.0488 13.6787H34.5967C36.5654 13.6787 38.2402 14.3691 39.6211 15.75C41.002 17.1309 41.6924 18.7988 41.6924 20.7539C41.6924 22.5723 41.0771 24.165 39.8467 25.5322C38.6162 26.8857 37.1055 27.6719 35.3145 27.8906C35.0547 27.8906 34.6992 27.9316 34.248 28.0137C33.8242 28.0547 33.5234 28.2188 33.3457 28.5059L28.1777 34.6172C27.8633 35.0137 27.7402 35.4717 27.8086 35.9912C27.8906 36.5107 28.123 36.9277 28.5059 37.2422C28.7383 37.5156 29.1484 37.6523 29.7363 37.6523C30.3105 37.6523 30.7549 37.3994 31.0693 36.8936L35.7041 31.5615C38.4248 31.2881 40.7217 30.1123 42.5947 28.0342C44.4678 25.9561 45.4043 23.5293 45.4043 20.7539C45.4043 19.2773 45.1172 17.8691 44.543 16.5293C43.9824 15.1895 43.2168 14.041 42.2461 13.084C41.2891 12.1133 40.1406 11.3408 38.8008 10.7666C37.4746 10.1924 36.0732 9.90527 34.5967 9.90527H33.8994C33.1748 7.00684 31.623 4.63477 29.2441 2.78906C26.8789 0.929687 24.1719 0 21.123 0C19.0859 0 17.165 0.4375 15.3604 1.3125C13.5693 2.17383 12.0586 3.38379 10.8281 4.94238C9.59766 6.4873 8.77051 8.25098 8.34668 10.2334C5.88574 10.7803 3.87598 12.0381 2.31738 14.0068C0.772461 15.9619 0 18.2109 0 20.7539ZM7.40332 38.2881C7.40332 38.4248 7.44434 38.6436 7.52637 38.9443C7.71777 39.4092 8.03906 39.7305 8.49023 39.9082C8.96875 40.127 9.4541 40.1406 9.94629 39.9492C10.4385 39.7578 10.7734 39.4297 10.9512 38.9648C11.1699 38.4863 11.1836 38.0146 10.9922 37.5498C10.8008 37.085 10.4658 36.7705 9.9873 36.6064C9.49512 36.374 9.02344 36.3535 8.57227 36.5449C8.12109 36.7363 7.78613 37.0781 7.56738 37.5703C7.45801 37.8027 7.40332 38.042 7.40332 38.2881ZM11.4434 32.9561V33.1816C11.4844 33.6738 11.7031 34.084 12.0996 34.4121C12.5918 34.6855 13.043 34.8223 13.4531 34.8223C13.9453 34.8223 14.3896 34.583 14.7861 34.1045L19.8721 28.0547C20.1865 27.6719 20.3301 27.1934 20.3027 26.6191C20.248 26.1543 20.043 25.7646 19.6875 25.4502C19.3457 25.1357 18.9697 24.9785 18.5596 24.9785C18.4365 24.9785 18.334 24.9854 18.252 24.999C17.7461 25.0947 17.3359 25.334 17.0215 25.7168L11.8535 31.7871C11.5801 32.1016 11.4434 32.4912 11.4434 32.9561ZM13.2891 42.5742C13.1797 42.7793 13.125 43.0117 13.125 43.2715C13.125 43.5312 13.1797 43.7637 13.2891 43.9688C13.4668 44.4336 13.7881 44.7754 14.2529 44.9941C14.4854 45.1035 14.7246 45.1582 14.9707 45.1582C15.2441 45.1582 15.4697 45.1035 15.6475 44.9941C16.1533 44.7891 16.4951 44.4883 16.6729 44.0918C16.8916 43.6133 16.9053 43.1279 16.7139 42.6357C16.5361 42.1436 16.2148 41.8086 15.75 41.6309C15.2715 41.4121 14.7793 41.3984 14.2734 41.5898C13.7812 41.7812 13.4531 42.1094 13.2891 42.5742ZM16.7754 38.1445V38.3906C16.8301 38.8691 17.0557 39.2656 17.4521 39.5801C17.8486 39.9082 18.252 40.0723 18.6621 40.0723C19.1543 40.0723 19.6123 39.833 20.0361 39.3545L29.5518 27.8906C29.7979 27.6172 29.9209 27.2412 29.9209 26.7627V26.4961C29.8662 26.0039 29.668 25.6143 29.3262 25.3271C28.9844 25.04 28.6016 24.8965 28.1777 24.8965H27.8906C27.3848 24.9238 26.9814 25.1494 26.6807 25.5732L17.165 36.9551C16.9053 37.3379 16.7754 37.7344 16.7754 38.1445ZM24.4658 40.667C24.4658 40.8584 24.5068 41.0771 24.5889 41.3232C24.7803 41.8018 25.1152 42.1436 25.5938 42.3486C25.8945 42.4307 26.1201 42.4717 26.2705 42.4717C26.585 42.4717 26.8311 42.417 27.0088 42.3076C27.501 42.1162 27.8359 41.8086 28.0137 41.3848C28.2324 41.0156 28.2461 40.5303 28.0547 39.9287C27.877 39.4775 27.5557 39.1562 27.0908 38.9648L26.3115 38.7598C26.1201 38.8008 25.8877 38.8555 25.6143 38.9238C25.1357 39.1016 24.8076 39.4229 24.6299 39.8877C24.5205 40.1475 24.4658 40.4072 24.4658 40.667Z" fill="currentColor" fill-opacity="currentColor"/>
</symbol>

<symbol id="mostsunny" viewBox="0 0 53 49" fill="none">
<path d="M0 26.7422C0 27.3301 0.205078 27.8154 0.615234 28.1982C1.02539 28.5811 1.55176 28.7725 2.19434 28.7725H5.88574C6.47363 28.7725 6.97266 28.5811 7.38281 28.1982C7.80664 27.8018 8.01855 27.3164 8.01855 26.7422C8.01855 26.1133 7.81348 25.5938 7.40332 25.1836C6.99316 24.7734 6.4873 24.5684 5.88574 24.5684H2.19434C1.55176 24.5684 1.02539 24.7734 0.615234 25.1836C0.205078 25.5801 0 26.0996 0 26.7422ZM3.87598 40.2773C3.87598 42.3965 4.64844 44.2285 6.19336 45.7734C7.73828 47.332 9.57031 48.1113 11.6895 48.1113H26.7012C28.8203 48.1113 30.6318 47.3457 32.1357 45.8145C33.6533 44.2832 34.4121 42.4375 34.4121 40.2773C34.4121 39.2246 34.2617 38.3291 33.9609 37.5908C35.7793 36.4287 37.2148 34.8838 38.2676 32.9561C39.334 31.0146 39.8672 28.9434 39.8672 26.7422C39.8672 24.9648 39.5186 23.2695 38.8213 21.6562C38.124 20.0293 37.1875 18.6348 36.0117 17.4727C34.8496 16.2969 33.4551 15.3604 31.8281 14.6631C30.2148 13.9658 28.5264 13.6172 26.7627 13.6172C24.3701 13.6172 22.1621 14.2051 20.1387 15.3809C18.1289 16.5566 16.543 18.1494 15.3809 20.1592C14.2324 22.1689 13.6582 24.3633 13.6582 26.7422V27.4805C11.4707 28.7246 10.0283 30.543 9.33105 32.9355C7.67676 33.4551 6.35059 34.3779 5.35254 35.7041C4.36816 37.0303 3.87598 38.5547 3.87598 40.2773ZM7.28027 9.29004C7.28027 9.90527 7.47168 10.3975 7.85449 10.7666L11.3818 14.458C12.4072 15.2373 13.4326 15.2373 14.458 14.458C14.8682 14.0479 15.0732 13.5352 15.0732 12.9199C15.0732 12.332 14.8682 11.8193 14.458 11.3818L10.8486 7.79297C10.3838 7.36914 9.87793 7.15723 9.33105 7.15723C8.71582 7.15723 8.2168 7.3623 7.83398 7.77246C7.46484 8.18262 7.28027 8.68848 7.28027 9.29004ZM8.20312 40.2773C8.20312 39.3613 8.49707 38.5752 9.08496 37.9189C9.67285 37.2627 10.418 36.8936 11.3203 36.8115L12.6738 36.627C12.9609 36.627 13.1045 36.4629 13.1045 36.1348L13.3096 34.9043C13.46 33.6465 13.9932 32.5938 14.9092 31.7461C15.8252 30.8984 16.9053 30.4746 18.1494 30.4746C19.4209 30.4746 20.5215 30.8984 21.4512 31.7461C22.3945 32.5938 22.9414 33.6465 23.0918 34.9043L23.2764 36.3193C23.4131 36.6475 23.5908 36.8115 23.8096 36.8115H26.7012C27.6445 36.8115 28.458 37.1533 29.1416 37.8369C29.8389 38.5205 30.1875 39.334 30.1875 40.2773C30.1875 41.2617 29.8389 42.1025 29.1416 42.7998C28.458 43.4971 27.6445 43.8457 26.7012 43.8457H11.6895C10.7051 43.8457 9.87793 43.4971 9.20801 42.7998C8.53809 42.1025 8.20312 41.2617 8.20312 40.2773ZM17.8828 26.291C18.0332 23.8984 18.9561 21.8887 20.6514 20.2617C22.3467 18.6348 24.3838 17.8213 26.7627 17.8213C29.1963 17.8213 31.2676 18.6895 32.9766 20.4258C34.6855 22.1621 35.54 24.2676 35.54 26.7422C35.54 28.2734 35.1641 29.6953 34.4121 31.0078C33.6738 32.3066 32.6689 33.3594 31.3975 34.166C30.1123 33.0996 28.6289 32.5664 26.9473 32.5664C26.3047 30.6523 25.1836 29.1279 23.584 27.9932C21.9844 26.8584 20.1729 26.291 18.1494 26.291H17.8828ZM24.6299 7.15723C24.6299 7.75879 24.835 8.27148 25.2451 8.69531C25.6689 9.10547 26.1748 9.31055 26.7627 9.31055C27.3643 9.31055 27.8701 9.10547 28.2803 8.69531C28.7041 8.27148 28.916 7.75879 28.916 7.15723V2.03027C28.916 1.45605 28.7041 0.977539 28.2803 0.594727C27.8701 0.198242 27.3643 0 26.7627 0C26.1748 0 25.6689 0.198242 25.2451 0.594727C24.835 0.977539 24.6299 1.45605 24.6299 2.03027V7.15723ZM39.0264 38.9854C38.6436 39.3818 38.4521 39.874 38.4521 40.4619C38.4521 41.0498 38.6504 41.5625 39.0469 42L42.6357 45.5479C43.5518 46.4775 44.5771 46.4775 45.7119 45.5479C46.0947 45.1787 46.2861 44.6865 46.2861 44.0713C46.2861 43.4834 46.0947 42.998 45.7119 42.6152L42.0205 38.9443C41.624 38.5752 41.125 38.3906 40.5234 38.3906C39.9219 38.3906 39.4229 38.5889 39.0264 38.9854ZM38.4521 12.8789C38.4521 13.4941 38.6504 14.0205 39.0469 14.458C39.4434 14.8545 39.9355 15.0527 40.5234 15.0527C41.125 15.0527 41.624 14.8545 42.0205 14.458L45.7119 10.7666C46.0947 10.3975 46.2861 9.90527 46.2861 9.29004C46.2861 8.68848 46.0742 8.18262 45.6504 7.77246C45.2402 7.3623 44.7344 7.15723 44.1328 7.15723C43.5586 7.15723 43.0596 7.36914 42.6357 7.79297L39.0469 11.3818C38.6504 11.7783 38.4521 12.2773 38.4521 12.8789ZM44.1123 26.7422C44.1123 27.3301 44.3174 27.8154 44.7275 28.1982C45.1377 28.5811 45.6641 28.7725 46.3066 28.7725H49.998C50.5859 28.7725 51.085 28.5811 51.4951 28.1982C51.9189 27.8018 52.1309 27.3164 52.1309 26.7422C52.1309 26.1133 51.9258 25.5938 51.5156 25.1836C51.1055 24.7734 50.5996 24.5684 49.998 24.5684H46.3066C45.6641 24.5684 45.1377 24.7734 44.7275 25.1836C44.3174 25.5801 44.1123 26.0996 44.1123 26.7422Z" fill="currentColor" fill-opacity="currentColor"/>
</symbol>


<symbol id="Moon" viewBox="0 0 31 32" fill="none">
<path d="M0 15.5244C0 13.4326 0.410156 11.4297 1.23047 9.51562C2.05078 7.60156 3.15137 5.9541 4.53223 4.57324C5.92676 3.17871 7.58105 2.07129 9.49512 1.25098C11.4229 0.416992 13.4326 0 15.5244 0H18.0264C18.3682 0.0957031 18.5391 0.300781 18.5391 0.615234L18.6416 2.54297C18.7236 5.31836 19.7217 7.68359 21.6357 9.63867C23.5498 11.5938 25.874 12.626 28.6084 12.7354L30.4131 12.8789C30.7686 12.8789 30.9463 13.0498 30.9463 13.3916V15.5244C30.96 18.3271 30.2764 20.9248 28.8955 23.3174C27.5283 25.6963 25.6553 27.583 23.2764 28.9775C20.9111 30.3584 18.3271 31.0488 15.5244 31.0488C13.3916 31.0488 11.3613 30.6387 9.43359 29.8184C7.51953 28.998 5.87207 27.8975 4.49121 26.5166C3.12402 25.1221 2.03027 23.4678 1.20996 21.5537C0.40332 19.6396 0 17.6299 0 15.5244ZM3.99902 15.5244C3.99902 17.1924 4.32715 18.7646 4.9834 20.2412C5.65332 21.7178 6.52148 22.9551 7.58789 23.9531C8.66797 24.9512 9.89844 25.7441 11.2793 26.332C12.6738 26.9062 14.0889 27.1934 15.5244 27.1934C16.7959 27.1934 18.0742 26.9473 19.3594 26.4551C20.6582 25.9492 21.8613 25.252 22.9688 24.3633C24.0762 23.4609 25.0264 22.3125 25.8193 20.918C26.626 19.5234 27.1455 17.999 27.3779 16.3447C23.8096 15.6064 20.9453 14.082 18.7852 11.7715C16.6387 9.44727 15.4014 6.71973 15.0732 3.58887C13.0088 3.69824 11.1152 4.33398 9.39258 5.49609C7.68359 6.6582 6.35742 8.13477 5.41406 9.92578C4.4707 11.7031 3.99902 13.5693 3.99902 15.5244Z" fill="currentColor" fill-opacity="currentColor"/>
</symbol>

<symbol id="MostlyCloudy" viewBox="0 0 36 35" fill="none">
<path d="M0 26.6602C0 28.7793 0.772461 30.6113 2.31738 32.1562C3.87598 33.7148 5.71484 34.4941 7.83398 34.4941H22.8252C24.9443 34.4941 26.7559 33.7285 28.2598 32.1973C29.7773 30.666 30.5361 28.8203 30.5361 26.6602C30.5361 25.6074 30.3857 24.7119 30.085 23.9736C31.9033 22.8115 33.3389 21.2666 34.3916 19.3389C35.458 17.3975 35.9912 15.3262 35.9912 13.125C35.9912 11.3477 35.6426 9.65234 34.9453 8.03906C34.2617 6.41211 33.332 5.01758 32.1562 3.85547C30.9805 2.67969 29.5859 1.74316 27.9727 1.0459C26.3594 0.348633 24.6709 0 22.9072 0C20.5146 0 18.3066 0.587891 16.2832 1.76367C14.2734 2.93945 12.6875 4.53223 11.5254 6.54199C10.377 8.55176 9.80273 10.7461 9.80273 13.125V13.8633C7.60156 15.1211 6.15234 16.9395 5.45508 19.3184C3.80078 19.8379 2.47461 20.7607 1.47656 22.0869C0.492188 23.4131 0 24.9375 0 26.6602ZM4.32715 26.6602C4.32715 25.7441 4.62109 24.958 5.20898 24.3018C5.79688 23.6455 6.54199 23.2764 7.44434 23.1943L8.81836 23.0098C9.0918 23.0098 9.22852 22.8457 9.22852 22.5176L9.4541 21.2871C9.60449 20.0293 10.1309 18.9766 11.0332 18.1289C11.9492 17.2812 13.0293 16.8574 14.2734 16.8574C15.5449 16.8574 16.6455 17.2812 17.5752 18.1289C18.5186 18.9766 19.0654 20.0293 19.2158 21.2871L19.4004 22.7021C19.5371 23.0303 19.7217 23.1943 19.9541 23.1943H22.8252C23.7686 23.1943 24.582 23.5361 25.2656 24.2197C25.9629 24.9033 26.3115 25.7168 26.3115 26.6602C26.3115 27.6445 25.9629 28.4854 25.2656 29.1826C24.582 29.8799 23.7686 30.2285 22.8252 30.2285H7.83398C6.84961 30.2285 6.01562 29.8799 5.33203 29.1826C4.66211 28.4854 4.32715 27.6445 4.32715 26.6602ZM14.0068 12.6738C14.1572 10.2812 15.0801 8.27148 16.7754 6.64453C18.4844 5.01758 20.5283 4.2041 22.9072 4.2041C25.3408 4.2041 27.4053 5.07227 29.1006 6.80859C30.8096 8.54492 31.6641 10.6504 31.6641 13.125C31.6641 14.6562 31.2949 16.0781 30.5566 17.3906C29.8184 18.6895 28.8135 19.7422 27.542 20.5488C26.2568 19.4824 24.7734 18.9492 23.0918 18.9492C22.4492 17.0352 21.3213 15.5107 19.708 14.376C18.1084 13.2412 16.2969 12.6738 14.2734 12.6738H14.0068Z" fill="currentColor" fill-opacity="currentColor"/>
</symbol>

</svg>


